<svg width="69" height="69" viewBox="0 0 69 69" fill="none" xmlns="http://www.w3.org/2000/svg">
<path d="M5.17916 1.95248L7.10966 8.49161H58.5452C65.0036 8.49161 69.9352 14.5183 68.0748 20.8117L62.2658 40.4677C61.0303 44.6551 57.1026 47.4526 52.7361 47.4526H20.5986C16.2322 47.4526 12.308 44.6551 11.0689 40.4677L0.128273 3.44423C0.0198928 3.10987 -0.0204318 2.75719 0.00967601 2.407C0.0397839 2.05681 0.139715 1.71619 0.303575 1.40524C0.467435 1.09429 0.691907 0.8193 0.963749 0.596493C1.23559 0.373685 1.5493 0.207572 1.88637 0.107951C2.22344 0.00832974 2.57705 -0.0227818 2.92634 0.0164506C3.27563 0.0556831 3.61352 0.164465 3.92009 0.336381C4.22666 0.508297 4.4957 0.739865 4.71134 1.01743C4.92699 1.29499 5.08837 1.61292 5.17916 1.95248ZM45.0914 23.5495C45.4882 22.983 45.6461 22.2831 45.5311 21.6011C45.416 20.9191 45.0371 20.3097 44.4763 19.9048C43.9155 19.4999 43.2179 19.332 42.5344 19.4373C41.8508 19.5427 41.2361 19.9128 40.8232 20.4677L34.8106 28.7899L32.7081 26.3891C32.4834 26.1189 32.2069 25.8965 31.8949 25.7349C31.5829 25.5733 31.2417 25.4757 30.8915 25.4481C30.5412 25.4204 30.1889 25.4631 29.8554 25.5737C29.5219 25.6843 29.2139 25.8606 28.9496 26.0921C28.6853 26.3236 28.47 26.6057 28.3164 26.9217C28.1628 27.2378 28.074 27.5813 28.0553 27.9322C28.0366 28.2831 28.0883 28.6341 28.2074 28.9647C28.3265 29.2953 28.5106 29.5987 28.7488 29.857L32.3781 34.0023C32.7165 34.3891 33.1377 34.6946 33.6104 34.8962C34.0831 35.0978 34.5951 35.1902 35.1085 35.1666C35.6218 35.143 36.1232 35.0039 36.5754 34.7598C37.0276 34.5157 37.419 34.1728 37.7204 33.7566L45.0914 23.5495ZM21.957 52.7176C19.8624 52.7176 17.8537 53.5497 16.3726 55.0307C14.8915 56.5118 14.0595 58.5206 14.0595 60.6151C14.0595 62.7097 14.8915 64.7184 16.3726 66.1995C17.8537 67.6805 19.8624 68.5126 21.957 68.5126C24.0515 68.5126 26.0603 67.6805 27.5413 66.1995C29.0224 64.7184 29.8545 62.7097 29.8545 60.6151C29.8545 58.5206 29.0224 56.5118 27.5413 55.0307C26.0603 53.5497 24.0515 52.7176 21.957 52.7176ZM50.037 52.7176C47.9424 52.7176 45.9337 53.5497 44.4526 55.0307C42.9715 56.5118 42.1395 58.5206 42.1395 60.6151C42.1395 62.7097 42.9715 64.7184 44.4526 66.1995C45.9337 67.6805 47.9424 68.5126 50.037 68.5126C52.1315 68.5126 54.1403 67.6805 55.6213 66.1995C57.1024 64.7184 57.9345 62.7097 57.9345 60.6151C57.9345 58.5206 57.1024 56.5118 55.6213 55.0307C54.1403 53.5497 52.1315 52.7176 50.037 52.7176Z" fill="#0C58D3"/>
</svg>
